<?xml version="1.0" encoding="UTF-8"?>
<svg width="40px" height="40px" viewBox="0 0 40 40" version="1.1" xmlns="http://www.w3.org/2000/svg"
     xmlns:xlink="http://www.w3.org/1999/xlink">
    <title>Plugin Icon</title>
    <g id="Plugin-Icon" stroke="none" stroke-width="1" fill="none" fill-rule="evenodd">
        <g id="hono" transform="translate(8.000000, 4.000000)" fill-rule="nonzero">
            <path d="M10.6557498,31.8878504 C10.1766125,31.824806 9.26877332,31.5978462 8.63832946,31.3834953 C4.26304908,29.9208656 1.04778539,26.4408155 0.177772867,22.2042327 C0.064292972,21.6998776 0.00124858607,21.2585669 0.0264663405,21.2333492 C0.0390752176,21.2081314 0.732563463,21.1703048 1.55214048,21.1576959 C3.26694778,21.1198693 3.21651227,21.0820427 3.65782297,22.4311925 C5.47350129,27.928663 11.1601049,30.387394 16.3801801,27.9160541 C17.3510636,27.4621345 18.8641289,26.39038 19.4063106,25.7599361 C20.4402385,24.5873105 20.7428516,24.0829554 21.4741664,22.2672771 C21.726344,21.6368333 22.0037393,21.0946515 22.0793925,21.0316072 C22.1676547,20.9811716 22.8233163,20.9307361 23.5420223,20.9307361 C25.0298698,20.9307361 24.9289988,20.7920385 24.6389946,22.5068458 C23.5672401,28.5969335 17.3888902,32.7452541 10.6557498,31.8878504 Z"
                  id="Path" fill="#FF3805"/>
            <path d="M11.0592339,29.2399862 C7.45309501,28.8743288 4.4143556,26.39038 3.31738329,22.9229387 C3.19129452,22.5194547 3.03998799,22.1916239 2.98955248,22.1916239 C2.92650809,22.1916239 2.91389922,22.1411883 2.95172585,22.0655351 C2.98955248,22.0024907 2.96433473,21.9394463 2.88868146,21.9394463 C2.8130282,21.9394463 2.77520157,21.8890108 2.82563708,21.8259664 C2.96433473,21.5863978 2.54824178,21.5107445 1.26213631,21.5485711 C-0.0491869227,21.5737889 -0.0491869227,21.5737889 0.0264663405,19.5185419 C0.0769018492,18.1063476 0.190381744,17.0219842 0.392123779,16.0763184 C0.682127954,14.6893419 0.682127954,14.6893419 2.88868146,14.6893419 C5.09523497,14.6893419 5.09523497,14.6893419 5.1330616,15.2315236 C5.15827936,15.6223988 5.00697283,16.2780605 4.60348876,17.5011215 C3.83434725,19.8589816 3.73347623,20.4515988 3.94782715,21.662051 C4.55305325,25.0412301 6.88569553,27.5377878 10.2648746,28.4330181 C12.6353435,29.0634619 15.8001717,28.3321471 17.9688986,26.6677753 C19.3558751,25.6086296 20.7428516,23.6290359 20.9950291,22.3429304 C21.0454646,22.1159706 21.1211179,21.9394463 21.1841623,21.9394463 C21.3985132,21.9394463 21.4489487,20.4389899 21.2976422,18.888098 C21.1589445,17.6146014 21.1589445,17.2363351 21.2850333,17.1102463 C21.3732954,17.0219842 21.928086,16.9463309 22.6846187,16.9211132 C23.9455064,16.8706777 23.9455064,16.8706777 24.084204,17.2363351 C24.3742082,18.0054766 24.7146479,19.5185419 24.7903011,20.4263811 C24.8659544,21.3720468 24.8659544,21.3720468 23.882462,21.3342202 C22.8233163,21.2837847 22.2559168,21.3720468 22.3693967,21.56118 C22.4072234,21.6368333 22.3946145,21.6872688 22.3315701,21.6872688 C22.2685257,21.6872688 22.0667837,22.1033617 21.8650416,22.6077168 C20.9950291,24.8520969 20.2384965,25.9112426 18.5867336,27.1721303 C16.4684422,28.7860666 13.8331869,29.5173815 11.0592339,29.2399862 Z"
                  id="Path" fill="#FF5116"/>
            <path d="M10.7692297,28.9878087 C8.20962764,28.6221512 5.83915873,27.0460416 4.56566213,24.8647058 C4.06130704,24.0073022 3.67043185,22.8346766 3.50651645,21.6494421 C3.31738329,20.3002923 3.45608094,19.4554975 4.22522245,17.1102463 C4.54044438,16.1519717 4.76740416,15.2819592 4.72957753,15.1810881 C4.66653315,15.0171727 4.36392009,14.991955 2.63650392,15.0297816 C1.52692273,15.0549994 0.619083568,15.0423905 0.619083568,15.0297816 C0.619083568,14.8154307 1.19909192,12.7727926 1.51431385,11.8901712 C1.9304068,10.7427634 2.82563708,8.82621403 2.9769436,8.82621403 C3.01477023,8.82621403 3.48129869,9.28013361 4.01087153,9.83492421 C4.86827518,10.7301545 5.01958171,10.8436344 5.42306578,10.8436344 C5.71306995,10.8436344 5.95263862,10.7553722 6.10394515,10.5914568 C6.2930783,10.3897148 6.49482034,10.3392793 7.20091746,10.3392793 C8.05832111,10.3392793 8.05832111,10.3392793 8.05832111,10.9697232 C8.05832111,11.701038 8.04571223,11.7262558 6.5704736,14.2984667 C4.93131957,17.1732907 4.02348041,19.4933241 4.02348041,20.7920385 C4.02348041,21.4224823 4.60348876,23.2381607 5.10784385,24.2216531 C6.2426428,26.39038 8.55006732,27.9790985 11.0970605,28.3825826 C13.8331869,28.8112844 17.0484505,27.5882233 19.0280443,25.3816698 C19.5828349,24.7512259 19.9484923,24.1081732 20.8437226,22.2042327 C20.9193758,22.0403173 20.9824202,21.3846557 20.9824202,20.7542119 C20.9824202,19.8337638 20.906767,19.3924531 20.6167628,18.4972228 C20.2637142,17.4254683 19.1793508,15.1306526 17.8932453,12.7475748 C17.3636725,11.7514735 17.2628015,11.4740782 17.2628015,10.8940699 C17.2628015,10.2131905 17.2628015,10.2131905 18.9397821,10.2131905 C20.6293717,10.2131905 20.6293717,10.2131905 21.6506907,12.01626 C22.2054813,12.9997524 22.8737518,14.2606401 23.1385382,14.8154307 C23.5546312,15.7358787 24.0715951,17.0850286 24.0715951,17.2615529 C24.0715951,17.2993795 23.5672401,17.3372061 22.9367962,17.3372061 C22.3189612,17.3372061 21.7515617,17.4002505 21.6759085,17.4759038 C21.5876463,17.5641659 21.5876463,17.9172145 21.6885174,18.6611382 C21.8398239,19.7959372 21.7893884,22.1664061 21.6002552,22.2924949 C21.5372108,22.3429304 21.3732954,22.7211967 21.2345978,23.1246808 C20.3645853,25.772545 17.8302009,27.9917074 14.8166793,28.74824 C13.6692715,29.0382442 11.8788109,29.1391152 10.7692297,28.9878087 Z"
                  id="Path" fill="#FF6428"/>
            <path d="M10.4792255,28.7356311 C9.52095087,28.5717157 8.26006315,28.0547518 7.27657073,27.3990901 C5.6878522,26.3525533 4.62870652,24.8394881 3.9730449,22.6833701 C3.22912115,20.2498568 3.75869399,18.1946098 6.19220729,13.9202004 C7.55396602,11.5497315 7.6800548,11.297554 7.6800548,10.9697232 C7.6800548,10.7427634 7.60440153,10.7175456 6.83526002,10.7175456 C6.00307413,10.7175456 6.00307413,10.7175456 6.25525167,10.4275414 C6.4065582,10.2762349 6.73438901,9.72144432 6.98656655,9.20448035 C8.29788978,6.56922502 12.6605613,0 13.101872,0 C13.3666584,0 17.931072,6.14052319 19.8097947,9.01534719 C20.7932871,10.5284125 20.7932871,10.5284125 19.2045685,10.5662391 C17.6032411,10.6040657 17.6032411,10.6040657 17.6788944,11.0201587 C17.716721,11.2597273 18.1202051,12.1297399 18.5741247,12.9619258 C20.3393675,16.1771894 21.20938,18.2954808 21.4111221,19.8968082 C21.5119931,20.7668207 21.3985132,22.2546682 21.1967711,22.6581523 C21.1211179,22.7842411 20.8311137,23.3894672 20.5411095,24.0199111 C19.671097,25.8229805 17.9688986,27.3612635 15.9136516,28.1808405 C14.3627597,28.8112844 12.2192506,29.0256353 10.4792255,28.7356311 Z M13.820578,28.0421429 C15.5984297,27.6764854 17.0358417,26.9325617 18.2967294,25.7473272 C20.1754521,23.9694755 21.007638,21.5990066 20.490674,19.5563685 C20.0115367,17.6650369 18.9776088,15.6350077 16.9475795,12.5458328 C15.6236474,10.5158036 12.8623033,6.68270491 12.7362146,6.68270491 C12.5975169,6.68270491 9.50834199,10.9318965 7.90701459,13.3023654 C5.77611434,16.4798025 4.64131539,18.8376625 4.45218223,20.5020343 C4.2504402,22.1537972 5.15827936,24.3603507 6.65873574,25.8608071 C8.5626762,27.7773565 11.2105404,28.5843246 13.820578,28.0421429 Z"
                  id="Shape" fill="#FF7A3B"/>
            <path d="M5.95263862,25.9364604 C4.65392427,24.4990484 3.92260939,22.4311925 4.06130704,20.5020343 C4.18739581,18.5728761 5.19610599,16.4041492 7.61701041,12.7980104 C9.73530178,9.65839993 12.3075127,6.20356758 12.6101258,6.11530544 C12.7488234,6.06486993 12.9379566,6.10269656 13.0388276,6.17834982 C13.3288318,6.41791849 16.0901759,10.263626 17.3258458,12.1675665 C20.5663273,17.0850286 21.4993842,19.8085461 20.8941581,22.4438014 C20.7176338,23.2129429 20.0493633,24.6125283 19.8224035,24.6881815 C19.5450082,24.7764437 19.6332704,23.91904 19.9737101,23.1498985 C20.1502343,22.7464145 20.3645853,22.0403173 20.4402385,21.56118 C20.5663273,20.7920385 20.5537184,20.5902965 20.3141497,19.5941952 C20.0745811,18.6359205 18.8893466,15.9880563 18.2462939,14.9415195 C16.4558333,12.117131 12.9253477,7.06097123 12.7236057,7.0735801 C12.685779,7.0735801 11.9796819,7.98141926 11.147496,9.10360933 C6.33090494,15.5971811 4.60348876,18.7241826 4.62870652,20.9937805 C4.64131539,22.4311925 5.39784802,24.335133 6.36873157,25.356452 C6.62090911,25.6212385 6.6839535,25.7977627 6.64612687,26.1760291 C6.60830023,26.6551664 6.60830023,26.6551664 5.95263862,25.9364604 Z"
                  id="Path" fill="#FF8C4D"/>
            <path d="M10.2648746,28.4204092 C8.76441823,28.1051873 6.2930783,26.7182108 6.2930783,26.1886379 C6.2930783,26.1129847 6.15438066,25.9112426 5.99046525,25.7347183 C5.46089241,25.1799278 4.78001304,23.9316489 4.50261774,23.0112009 C4.0865248,21.6998776 4.12435143,20.0607236 4.57827101,18.7241826 C5.34741252,16.4798025 7.06221981,13.7184584 10.744012,8.76316965 C12.282295,6.70792267 12.5218636,6.43052737 12.7992589,6.43052737 C13.0892631,6.43052737 16.4810511,11.1714652 18.6245602,14.5632532 C18.7002135,14.7019508 19.1415242,15.5593545 19.5954437,16.4545847 C21.2724244,19.8085461 21.3228599,21.5990066 19.872839,24.7133993 C19.3937017,25.7095006 17.313237,27.3864813 15.8001717,27.9790985 C14.1862354,28.6095423 11.9922908,28.7860666 10.2648746,28.4204092 Z"
                  id="Path" fill="#FF9756"/>
        </g>
    </g>
</svg>
