<?xml version="1.0" encoding="UTF-8"?>
<svg width="16px" height="16px" viewBox="0 0 16 16" version="1.1" xmlns="http://www.w3.org/2000/svg"
     xmlns:xlink="http://www.w3.org/1999/xlink">
    <title>Generator Icon</title>
    <g id="Generator-Icon" stroke="none" stroke-width="1" fill="none" fill-rule="evenodd">
        <g id="hono" transform="translate(3.000000, 2.000000)" fill-rule="nonzero">
            <path d="M4.26229993,12.7551402 C4.07064499,12.7299224 3.70750933,12.6391385 3.45533179,12.5533981 C1.70521963,11.9683462 0.419114157,10.5763262 0.0711091467,8.88169309 C0.0257171888,8.67995106 0.000499434426,8.50342678 0.0105865362,8.49333968 C0.0156300871,8.48325257 0.293025385,8.46812192 0.620856192,8.46307837 C1.30677911,8.44794772 1.28660491,8.43281707 1.46312919,8.97247701 C2.18940051,11.1714652 4.46404196,12.1549576 6.55207202,11.1664216 C6.94042544,10.9848538 7.54565155,10.556152 7.76252423,10.3039744 C8.17609541,9.83492421 8.29714063,9.63318217 8.58966658,8.90691085 C8.6905376,8.6547333 8.80149571,8.43786062 8.83175702,8.41264286 C8.86706188,8.39246866 9.12932652,8.37229446 9.41680892,8.37229446 C10.0119479,8.37229446 9.97159952,8.3168154 9.85559785,9.00273832 C9.42689602,11.4387734 6.95555609,13.0981016 4.26229993,12.7551402 Z"
                  id="Path" fill="#FF3805"/>
            <path d="M4.42369355,11.6959945 C2.981238,11.5497315 1.76574224,10.556152 1.32695332,9.16917549 C1.27651781,9.00778187 1.2159952,8.87664954 1.19582099,8.87664954 C1.17060324,8.87664954 1.16555969,8.85647534 1.18069034,8.82621403 C1.19582099,8.80099628 1.18573389,8.77577853 1.15547259,8.77577853 C1.12521128,8.77577853 1.11008063,8.75560432 1.13025483,8.73038657 C1.18573389,8.6345591 1.01929671,8.6042978 0.504854522,8.61942845 C-0.0196747691,8.62951555 -0.0196747691,8.62951555 0.0105865362,7.80741676 C0.0307607397,7.24253906 0.0761526976,6.80879368 0.156849512,6.43052737 C0.272851182,5.87573677 0.272851182,5.87573677 1.15547259,5.87573677 C2.03809399,5.87573677 2.03809399,5.87573677 2.05322464,6.09260946 C2.06331174,6.24895954 2.00278913,6.51122418 1.8413955,7.00044862 C1.5337389,7.94359263 1.49339049,8.18063952 1.57913086,8.66482041 C1.8212213,10.016492 2.75427821,11.0151151 4.10594985,11.3732072 C5.05413741,11.6253848 6.32006868,11.3328588 7.18755943,10.6671101 C7.74235003,10.2434518 8.29714063,9.45161434 8.39801164,8.93717215 C8.41818585,8.84638824 8.44844715,8.77577853 8.47366491,8.77577853 C8.55940527,8.77577853 8.57957948,8.17559597 8.51905687,7.55523921 C8.46357781,7.04584057 8.46357781,6.89453405 8.51401331,6.84409854 C8.54931817,6.80879368 8.77123441,6.77853238 9.07384746,6.76844528 C9.57820255,6.74827107 9.57820255,6.74827107 9.63368161,6.89453405 C9.74968328,7.20219065 9.88585915,7.80741676 9.91612046,8.17055242 C9.94638176,8.54881874 9.94638176,8.54881874 9.5529848,8.53368808 C9.12932652,8.51351388 8.90236673,8.54881874 8.94775869,8.624472 C8.96288934,8.6547333 8.95784579,8.67490751 8.93262804,8.67490751 C8.90741028,8.67490751 8.82671347,8.84134469 8.74601665,9.04308672 C8.39801164,9.94083878 8.09539859,10.3644971 7.43469343,10.8688521 C6.58737688,11.5144267 5.53327475,11.8069526 4.42369355,11.6959945 Z"
                  id="Path" fill="#FF5116"/>
            <path d="M4.30769188,11.5951235 C3.28385106,11.4488605 2.33566349,10.8184166 1.82626485,9.94588233 C1.62452282,9.60292087 1.46817274,9.13387064 1.40260658,8.65977686 C1.32695332,8.12011691 1.38243237,7.782199 1.69008898,6.84409854 C1.81617775,6.46078867 1.90696167,6.11278366 1.89183101,6.07243526 C1.86661326,6.00686909 1.74556804,5.99678199 1.05460157,6.01191265 C0.610769091,6.02199975 0.247633427,6.0169562 0.247633427,6.01191265 C0.247633427,5.92617228 0.479636768,5.10911704 0.60572554,4.75606848 C0.772162719,4.29710535 1.13025483,3.53048561 1.19077744,3.53048561 C1.20590809,3.53048561 1.39251948,3.71205345 1.60434861,3.93396968 C1.94731007,4.2920618 2.00783268,4.33745375 2.16922631,4.33745375 C2.28522798,4.33745375 2.38105545,4.3021489 2.44157806,4.23658274 C2.51723132,4.15588592 2.59792814,4.13571172 2.88036699,4.13571172 C3.22332844,4.13571172 3.22332844,4.13571172 3.22332844,4.38788926 C3.22332844,4.68041521 3.21828489,4.69050232 2.62818944,5.71938669 C1.97252783,6.86931629 1.60939216,7.79732966 1.60939216,8.3168154 C1.60939216,8.56899294 1.8413955,9.29526427 2.04313754,9.68866123 C2.49705712,10.556152 3.42002693,11.1916394 4.43882421,11.353033 C5.53327475,11.5245138 6.81938022,11.0352893 7.61121771,10.1526679 C7.83313395,9.90049037 7.97939692,9.64326928 8.33748903,8.88169309 C8.36775034,8.81612693 8.39296809,8.55386229 8.39296809,8.30168474 C8.39296809,7.93350553 8.36270679,7.75698125 8.24670512,7.39888914 C8.10548569,6.97018731 7.67174032,6.05226105 7.15729813,5.09902994 C6.94546899,4.70058942 6.90512058,4.5896313 6.90512058,4.35762796 C6.90512058,4.08527621 6.90512058,4.08527621 7.57591285,4.08527621 C8.25174867,4.08527621 8.25174867,4.08527621 8.66027629,4.80650399 C8.88219253,5.19990095 9.14950073,5.70425604 9.25541529,5.92617228 C9.42185247,6.29435149 9.62863806,6.83401144 9.62863806,6.90462115 C9.62863806,6.9197518 9.42689602,6.93488246 9.17471848,6.93488246 C8.92758449,6.93488246 8.7006247,6.96010021 8.67036339,6.99036152 C8.63505854,7.02566637 8.63505854,7.1668858 8.67540694,7.4644553 C8.73592955,7.91837488 8.71575535,8.86656244 8.64010209,8.91699795 C8.61488433,8.93717215 8.54931817,9.08847868 8.49383911,9.24987231 C8.1458341,10.309018 7.13208037,11.1966829 5.92667171,11.499296 C5.46770858,11.6152977 4.75152436,11.6556461 4.30769188,11.5951235 Z"
                  id="Path" fill="#FF6428"/>
            <path d="M4.19169021,11.4942524 C3.80838035,11.4286863 3.30402526,11.2219007 2.91062829,10.9596361 C2.27514088,10.5410213 1.85148261,9.93579523 1.58921796,9.07334803 C1.29164846,8.09994271 1.5034776,7.27784392 2.47688291,5.56808017 C3.02158641,4.6198926 3.07202192,4.51902159 3.07202192,4.38788926 C3.07202192,4.29710535 3.04176061,4.28701825 2.73410401,4.28701825 C2.40122965,4.28701825 2.40122965,4.28701825 2.50210067,4.17101658 C2.56262328,4.11049396 2.6937556,3.88857773 2.79462662,3.68179214 C3.31915591,2.62769001 5.06422451,0 5.2407488,0 C5.34666336,0 7.17242878,2.45620928 7.92391786,3.60613888 C8.31731483,4.21136498 8.31731483,4.21136498 7.68182742,4.22649563 C7.04129646,4.24162629 7.04129646,4.24162629 7.07155776,4.40806347 C7.08668842,4.50389093 7.24808204,4.85189594 7.42964988,5.1847703 C8.135747,6.47087577 8.48375201,7.31819232 8.56444882,7.95872328 C8.60479723,8.30672829 8.55940527,8.9018673 8.47870846,9.06326093 C8.44844715,9.11369643 8.33244548,9.35578688 8.21644381,9.60796442 C7.8684388,10.3291922 7.18755943,10.9445054 6.36546064,11.2723362 C5.74510388,11.5245138 4.88770023,11.6102541 4.19169021,11.4942524 Z M5.5282312,11.2168572 C6.23937187,11.0705942 6.81433667,10.7730247 7.31869176,10.2989309 C8.07018084,9.58779022 8.4030552,8.63960265 8.19626961,7.82254741 C8.00461468,7.06601478 7.5910435,6.25400309 6.77903181,5.01833312 C6.24945897,4.20632143 5.14492133,2.67308196 5.09448582,2.67308196 C5.03900676,2.67308196 3.8033368,4.37275861 3.16280583,5.32094618 C2.31044574,6.591921 1.85652616,7.53506501 1.78087289,8.20081373 C1.70017608,8.86151889 2.06331174,9.74414029 2.6634943,10.3443228 C3.42507048,11.1109426 4.48421616,11.4337298 5.5282312,11.2168572 Z"
                  id="Shape" fill="#FF7A3B"/>
            <path d="M2.38105545,10.3745842 C1.86156971,9.79961935 1.56904376,8.97247701 1.62452282,8.20081373 C1.67495833,7.42915044 2.0784424,6.56165969 3.04680416,5.11920414 C3.89412071,3.86335997 4.92300509,2.48142703 5.04405031,2.44612218 C5.09952937,2.42594797 5.17518263,2.44107862 5.21553104,2.47133993 C5.33153271,2.5671674 6.43607035,4.10545041 6.93033834,4.8670266 C8.22653091,6.83401144 8.59975368,7.92341843 8.35766324,8.97752056 C8.28705353,9.28517716 8.01974533,9.84501131 7.92896141,9.87527262 C7.81800329,9.91057747 7.85330815,9.56761601 7.98948402,9.25995941 C8.06009374,9.09856578 8.1458341,8.81612693 8.17609541,8.624472 C8.22653091,8.3168154 8.22148736,8.23611858 8.1256599,7.83767806 C8.02983243,7.4543682 7.55573865,6.39522251 7.29851755,5.97660779 C6.58233333,4.84685239 5.17013908,2.82438849 5.08944227,2.82943204 C5.07431162,2.82943204 4.79187277,3.19256771 4.45899841,3.64144373 C2.53236197,6.23887243 1.8413955,7.48967305 1.85148261,8.39751221 C1.85652616,8.97247701 2.15913921,9.73405319 2.54749263,10.1425808 C2.64836364,10.2484954 2.6735814,10.3191051 2.65845075,10.4704116 C2.64332009,10.6620666 2.64332009,10.6620666 2.38105545,10.3745842 Z"
                  id="Path" fill="#FF8C4D"/>
            <path d="M4.10594985,11.3681637 C3.50576729,11.2420749 2.51723132,10.6872843 2.51723132,10.4754552 C2.51723132,10.4451939 2.46175226,10.3644971 2.3961861,10.2938873 C2.18435696,10.0719711 1.91200522,9.57265956 1.8010471,9.20448035 C1.63460992,8.67995106 1.64974057,8.02428945 1.8313084,7.48967305 C2.13896501,6.591921 2.82488793,5.48738335 4.29760478,3.50526786 C4.91291799,2.68316907 5.00874546,2.57221095 5.11970357,2.57221095 C5.23570524,2.57221095 6.59242043,4.46858608 7.44982408,5.82530126 C7.48008538,5.88078032 7.65660967,6.22374178 7.8381775,6.58183389 C8.50896976,7.92341843 8.52914397,8.63960265 7.94913562,9.88535972 C7.75748068,10.2838002 6.92529479,10.9545925 6.32006868,11.1916394 C5.67449417,11.4438169 4.79691632,11.5144267 4.10594985,11.3681637 Z"
                  id="Path" fill="#FF9756"/>
        </g>
    </g>
</svg>
